<svg width="50" height="50" viewBox="0 0 50 50" fill="none" xmlns="http://www.w3.org/2000/svg">
<path d="M38.1318 26.6852L36.9862 25.6227L38.1318 26.6852ZM23.4004 11.9538L24.4629 13.0994L23.4004 11.9538ZM45.1263 8.90067L46.6756 9.1033L45.1263 8.90067ZM41.185 4.9593L41.3876 6.5086L41.3876 6.5086L41.185 4.9593ZM13.5294 26.3554L14.9323 27.0432L14.9323 27.0432L13.5294 26.3554ZM23.7302 36.5563L23.0424 35.1533L23.0424 35.1533L23.7302 36.5563ZM17.1397 21.1609C16.5295 20.5507 15.5401 20.5507 14.9299 21.1609C14.3197 21.771 14.3197 22.7604 14.9299 23.3706L17.1397 21.1609ZM26.7151 35.1557C27.3252 35.7659 28.3146 35.7659 28.9248 35.1557C29.535 34.5455 29.535 33.5562 28.9248 32.946L26.7151 35.1557ZM13.4568 38.8385C14.067 38.2283 14.067 37.239 13.4568 36.6288C12.8466 36.0186 11.8573 36.0186 11.2471 36.6288L13.4568 38.8385ZM5.35454 42.5214C4.74435 43.1316 4.74435 44.1209 5.35454 44.7311C5.96473 45.3413 6.95406 45.3413 7.56425 44.7311L5.35454 42.5214ZM9.03739 34.4191C9.64758 33.8089 9.64758 32.8196 9.03739 32.2094C8.42719 31.5992 7.43787 31.5992 6.82768 32.2094L9.03739 34.4191ZM3.8814 35.1557C3.27121 35.7659 3.27121 36.7552 3.8814 37.3654C4.4916 37.9756 5.48092 37.9756 6.09111 37.3654L3.8814 35.1557ZM17.8762 43.2579C18.4864 42.6477 18.4864 41.6584 17.8762 41.0482C17.266 40.438 16.2767 40.438 15.6665 41.0482L17.8762 43.2579ZM12.7202 43.9945C12.11 44.6047 12.11 45.594 12.7202 46.2042C13.3304 46.8144 14.3198 46.8144 14.9299 46.2042L12.7202 43.9945ZM22.0747 43.9208L23.6215 43.6999L23.6215 43.6999L22.0747 43.9208ZM32.8286 36.7025L34.3754 36.4815L34.3754 36.4815L32.8286 36.7025ZM6.16472 28.011L6.38569 26.4642L6.38569 26.4642L6.16472 28.011ZM13.3831 17.2571L13.1621 18.8039L13.1621 18.8039L13.3831 17.2571ZM20.3125 34.6458L15.4398 29.7732L13.2301 31.9829L18.1027 36.8555L20.3125 34.6458ZM36.9862 25.6227C33.0411 29.8763 26.6355 33.3918 23.0424 35.1533L24.418 37.9592C28.0435 36.1818 34.9094 32.4574 39.2774 27.7477L36.9862 25.6227ZM14.9323 27.0432C16.6939 23.4501 20.2093 17.0445 24.4629 13.0994L22.3379 10.8082C17.6283 15.1762 13.9038 22.0422 12.1264 25.6676L14.9323 27.0432ZM43.577 8.69804C42.944 13.5383 41.2621 21.0124 36.9862 25.6227L39.2774 27.7477C44.2681 22.3668 46.0329 14.0179 46.6756 9.1033L43.577 8.69804ZM24.4629 13.0994C29.0732 8.82357 36.5473 7.14165 41.3876 6.5086L40.9823 3.40999C36.0677 4.05276 27.7188 5.81756 22.3379 10.8082L24.4629 13.0994ZM46.6756 9.1033C47.1154 5.74106 44.3446 2.97025 40.9823 3.40999L41.3876 6.5086C42.7146 6.33505 43.7506 7.37104 43.577 8.69804L46.6756 9.1033ZM15.4398 29.7732C14.6832 29.0165 14.4983 27.9285 14.9323 27.0432L12.1264 25.6676C11.0677 27.8272 11.5889 30.3416 13.2301 31.9829L15.4398 29.7732ZM18.1027 36.8555C19.744 38.4967 22.2584 39.018 24.418 37.9592L23.0424 35.1533C22.1571 35.5873 21.0691 35.4024 20.3125 34.6458L18.1027 36.8555ZM14.9299 23.3706L26.7151 35.1557L28.9248 32.946L17.1397 21.1609L14.9299 23.3706ZM11.2471 36.6288L5.35454 42.5214L7.56425 44.7311L13.4568 38.8385L11.2471 36.6288ZM6.82768 32.2094L3.8814 35.1557L6.09111 37.3654L9.03739 34.4191L6.82768 32.2094ZM15.6665 41.0482L12.7202 43.9945L14.9299 46.2042L17.8762 43.2579L15.6665 41.0482ZM27.4516 14.5317C25.2142 16.7691 25.2142 20.3966 27.4516 22.634L29.6613 20.4243C28.6443 19.4073 28.6443 17.7584 29.6613 16.7414L27.4516 14.5317ZM27.4516 22.634C29.689 24.8714 33.3165 24.8714 35.5539 22.634L33.3442 20.4243C32.3272 21.4413 30.6783 21.4413 29.6613 20.4243L27.4516 22.634ZM35.5539 22.634C37.7913 20.3966 37.7913 16.7691 35.5539 14.5317L33.3442 16.7414C34.3612 17.7584 34.3612 19.4073 33.3442 20.4243L35.5539 22.634ZM35.5539 14.5317C33.3165 12.2943 29.689 12.2943 27.4516 14.5317L29.6613 16.7414C30.6783 15.7244 32.3272 15.7244 33.3442 16.7414L35.5539 14.5317ZM31.1345 37.3654L24.5053 43.9945L26.7151 46.2042L33.3442 39.5751L31.1345 37.3654ZM23.6215 43.6999L22.7376 37.5127L19.644 37.9546L20.5279 44.1418L23.6215 43.6999ZM30.6925 32.7987L31.2818 36.9234L34.3754 36.4815L33.7861 32.3567L30.6925 32.7987ZM24.5053 43.9945C24.2019 44.298 23.6822 44.1248 23.6215 43.6999L20.5279 44.1418C20.9527 47.116 24.5907 48.3286 26.7151 46.2042L24.5053 43.9945ZM33.3442 39.5751C34.1556 38.7636 34.5377 37.6175 34.3754 36.4815L31.2818 36.9234C31.305 37.0857 31.2504 37.2495 31.1345 37.3654L33.3442 39.5751ZM10.5105 16.7415L3.88136 23.3706L6.09107 25.5803L12.7202 18.9512L10.5105 16.7415ZM5.94375 29.5578L12.1309 30.4417L12.5729 27.3481L6.38569 26.4642L5.94375 29.5578ZM17.7289 16.2995L13.6041 15.7103L13.1621 18.8039L17.2869 19.3931L17.7289 16.2995ZM3.88136 23.3706C1.75697 25.495 2.96962 29.1329 5.94375 29.5578L6.38569 26.4642C5.96082 26.4035 5.78758 25.8838 6.09107 25.5803L3.88136 23.3706ZM12.7202 18.9512C12.8361 18.8353 12.9998 18.7807 13.1621 18.8039L13.6041 15.7103C12.4681 15.548 11.3219 15.93 10.5105 16.7415L12.7202 18.9512Z" fill="#4F77FF"/>
</svg>
